[centre]Imdb Link :- [url]http://www.imdb.com/title/tt0974583[/url][/centre]


[code]Movie Name :- Lake Placid 2(2007)

Run Time :- 88 min  

Genere :-  Horror | Sci-Fi  

Releasing Date :-  28 April 2007 (USA) 




Director:- David Flores

Writers:- Todd Hurvitz, Howie Miller

Stars:-John Schneider, Sarah Lafleur, Sam McMurray[/code]



[b]Story Line :-In the sequel to the feature film, man-eating crocodiles return to the lake as two males and one aggressive female crocodile, which is protecting her nest, wreak havoc on the locals. The town sheriff brings in a group of scientific experts to rid the town of their dilemma....[/b]








[b]General[/b]


[code]Complete name                            : Lake_Placid_2_2007_BRRip_In_Hindi.avi
Format                                   : AVI
Format/Info                              : Audio Video Interleave
File size                                : 123 MiB
Duration                                 : 1h 24mn
Overall bit rate                         : 204 Kbps
Writing application                      : MEncoder VERSION
Writing library                          : MPlayer[/code]


[b]Video [/b]


[code]ID                                       : 0
Format                                   : MPEG-4 Visual
Format profile                           : Advanced Simple@L5
Format settings, BVOP                    : 2
Format settings, QPel                    : No
Format settings, GMC                     : No warppoints
Format settings, Matrix                  : Default (H.263)
Codec ID                                 : XVID
Codec ID/Hint                            : XviD
Duration                                 : 1h 23mn
Bit rate                                 : 160 Kbps
Width                                    : 320 pixels
Height                                   : 240 pixels
Display aspect ratio                     : 1.85:1
Original display aspect ratio            : 4:3
Frame rate                               : 25.000 fps
Color space                              : YUV
Chroma subsampling                       : 4:2:0
Bit depth                                : 8 bits
Scan type                                : Progressive
Compression mode                         : Lossy
Bits/(Pixel*Frame)                       : 0.083
Stream size                              : 96.1 MiB (78%)
Writing library                          : XviD 64[/code]



[b]Audio[/b]


[code]ID                                       : 1
Format                                   : MPEG Audio
Format version                           : Version 2
Format profile                           : Layer 3
Codec ID                                 : 55
Codec ID/Hint                            : MP3
Duration                                 : 1h 24mn
Bit rate mode                            : Constant
Bit rate                                 : 32.0 Kbps
Channel(s)                               : 1 channel
Sampling rate                            : 22.05 KHz
Compression mode                         : Lossy
Stream size                              : 19.2 MiB (16%)
Alignment                                : Aligned on interleaves
Interleave, duration                     : 26 ms (0.65 video frame)
Interleave, preload duration             : 522 ms
Writing library                          : LAME3.99.5UUUUUUUUUL[/code]




[img]http://www.shotpix.com/images/39741266100115848635.gif[/img]



[img]http://www.shotpix.com/images/97256915597390625306.png
[/img]





[img]http://www.shotpix.com/images/03956556000634116861.png
[/img]





[img]http://www.shotpix.com/images/24679205774230370763.png
[/img]





[img]http://www.shotpix.com/images/82432054315252441476.png
[/img]





[img]http://www.shotpix.com/images/61550457486803601228.png
[/img]






[img]http://www.shotpix.com/images/06579233777291415826.gif[/img]






[img]http://www.shotpix.com/images/37530658244654420663.jpg[/img]